<?xml version="1.0" encoding="utf-8"?>
<svg version="1.1" id="Capa_1" xmlns="http://www.w3.org/2000/svg" xmlns:xlink="http://www.w3.org/1999/xlink" x="0px" y="0px"
	 viewBox="0 0 346.8 80.9" style="enable-background:new 0 0 346.8 80.9;" xml:space="preserve">
<style type="text/css">
	.st0{fill:#ff6b61;}
</style>
<path class="st0" d="M310.2,38.7c-5.3,0-9.5,4.3-9.5,9.5c0,5.3,4.3,9.5,9.5,9.5c5.3,0,9.5-4.3,9.5-9.5
	C319.7,43,315.5,38.7,310.2,38.7 M345.4,16l-1.4,3.7l-1.4-3.7H341v5.2h1v-4.1h0l1.6,4.1h0.7l1.6-4.1h0v4.1h1V16H345.4z M274.7,63.9
	h-4.2c-8.5,0-15.4-6.9-15.4-15.4V33h19.3c1.5,0,2.7-1.2,2.7-2.7V18.7c0-1.5-1.2-2.7-2.7-2.7h-19.3V2.7c0-1.5-1.2-2.7-2.7-2.7h-11.5
	c-1.5,0-2.7,1.2-2.7,2.7v45.7c0,17.9,14.5,32.4,32.4,32.4h4.2c1.5,0,2.7-1.2,2.7-2.7V66.7C277.5,65.1,276.3,63.9,274.7,63.9
	 M332.5,70.6c-1.2,1.2-3.1,1.2-4.3,0l-9.4-9.4c-6.1,4.1-14.3,3.4-19.7-1.9c-6.1-6.1-6.1-15.9,0-22c6.1-6.1,15.9-6.1,22,0
	c5.3,5.3,6,13.6,1.9,19.7l9.4,9.4C333.7,67.5,333.7,69.4,332.5,70.6 M333.3,25.2c-12.7-12.7-33.4-12.7-46.1,0
	c-12.7,12.7-12.7,33.4,0,46.1c6.3,6.3,14.5,9.4,22.7,9.5l30.2,0c1.5,0,2.7-1.2,2.7-2.7l0-30.2C342.7,39.7,339.5,31.4,333.3,25.2
	 M202.2,15.6C183.9,15.3,169,30.8,169,49.1v29c0,1.5,1.2,2.7,2.7,2.7h11.6c1.5,0,2.7-1.2,2.7-2.7V48.2c0-8.9,7.6-16.1,16.6-15.5
	c8.3,0.6,14.5,7.8,14.5,16.1v29.4c0,1.5,1.2,2.7,2.7,2.7h11.6c1.5,0,2.7-1.2,2.7-2.7V48.2C234.2,30.4,219.9,15.9,202.2,15.6
	 M65,15.6c-6.8,0.4-12.9,3.5-17.5,8c-5.5-5.4-13.1-8.6-21.5-8C11.2,16.6,0,29.6,0,44.4v33.7c0,1.5,1.2,2.8,2.8,2.8h11.4
	c1.5,0,2.8-1.2,2.8-2.8V44.2c0-6,4.5-11.3,10.4-11.6c6.4-0.3,11.6,4.7,11.6,11v34.5c0,1.5,1.2,2.8,2.8,2.8h11.4
	c1.5,0,2.8-1.2,2.8-2.8V44.2c0-6,4.5-11.3,10.4-11.6c6.4-0.3,11.6,4.7,11.6,11v34.5c0,1.5,1.2,2.8,2.8,2.8h11.4
	c1.5,0,2.8-1.2,2.8-2.8V43.5C94.8,27.4,81.3,14.6,65,15.6 M337.4,21.2h1v-4.4h1.6V16h-4.2v0.8h1.6V21.2z M142.3,59.3
	c-6.1,6.1-15.9,6.1-22,0c-6.1-6.1-6.1-15.9,0-22c6.1-6.1,15.9-6.1,22,0C148.4,43.3,148.4,53.2,142.3,59.3 M154.3,25.2
	c-12.7-12.7-33.4-12.7-46.1,0c-12.7,12.7-12.7,33.4,0,46.1c6.3,6.3,14.5,9.4,22.7,9.5l30.2,0c1.5,0,2.7-1.2,2.7-2.7l0-30.2
	C163.8,39.7,160.6,31.5,154.3,25.2"/>
</svg>
